HIERARCHY
ROOT Hips
{
  OFFSET 150.432 88.1888 27.0678
  CHANNELS 6 Xposition Yposition Zposition Zrotation Xrotation Yrotation
  JOINT RightUpLeg
  {
    OFFSET -9.25679 -1.50405 0.000749919
    CHANNELS 3 Zrotation Xrotation Yrotation
    JOINT RightLeg
    {
      OFFSET 0.0460649 -41.9017 0.109432
      CHANNELS 3 Zrotation Xrotation Yrotation
      JOINT RightFoot
      {
        OFFSET 1.7988 -41.6468 0.413135
        CHANNELS 3 Zrotation Xrotation Yrotation
        End Site
        {
          OFFSET 0 -7.69 17.5
        }
      }
    }
  }
  JOINT LeftUpLeg
  {
    OFFSET 9.37007 -1.70178 -0.0772456
    CHANNELS 3 Zrotation Xrotation Yrotation
    JOINT LeftLeg
    {
      OFFSET 0.225295 -41.8622 -0.102498
      CHANNELS 3 Zrotation Xrotation Yrotation
      JOINT LeftFoot
      {
        OFFSET -2.07126 -41.2817 -1.22305
        CHANNELS 3 Zrotation Xrotation Yrotation
        End Site
        {
          OFFSET 0 -7.69 17.5
        }
      }
    }
  }
  JOINT Spine
  {
    OFFSET 0.0614897 14.2979 0.0172263
    CHANNELS 3 Zrotation Xrotation Yrotation
    JOINT Spine1
    {
      OFFSET 0.0253415 9.71429 0.00919728
      CHANNELS 3 Zrotation Xrotation Yrotation
      JOINT Spine2
      {
        OFFSET -0.0163533 10.1275 0.00641818
        CHANNELS 3 Zrotation Xrotation Yrotation
        JOINT Spine3
        {
          OFFSET 0.00964153 9.71178 0.018187
          CHANNELS 3 Zrotation Xrotation Yrotation
          JOINT Neck
          {
            OFFSET -0.0402277 10.3749 0.0917408
            CHANNELS 3 Zrotation Xrotation Yrotation
            JOINT Head
            {
              OFFSET 0.0121048 9.49481 0.108971
              CHANNELS 3 Zrotation Xrotation Yrotation
              End Site
              {
                OFFSET 0 15.95 0
              }
            }
          }
          JOINT RightShoulder
          {
            OFFSET -3.18208 6.946 0.015457
            CHANNELS 3 Zrotation Xrotation Yrotation
            JOINT RightArm
            {
              OFFSET -12.7708 0.0386499 -0.00729584
              CHANNELS 3 Zrotation Xrotation Yrotation
              JOINT RightForeArm
              {
                OFFSET -26.422 0.00272702 0.0331834
                CHANNELS 3 Zrotation Xrotation Yrotation
                JOINT RightHand
                {
                  OFFSET -25.9963 -0.0318335 0.00677283
                  CHANNELS 3 Zrotation Xrotation Yrotation
                  JOINT RightHandThumb1
                  {
                    OFFSET -2.48905 0.190105 3.12053
                    CHANNELS 3 Zrotation Xrotation Yrotation
                    JOINT RightHandThumb2
                    {
                      OFFSET -3.68274 0 0
                      CHANNELS 3 Zrotation Xrotation Yrotation
                      JOINT RightHandThumb3
                      {
                        OFFSET -2.55832 0 0
                        CHANNELS 3 Zrotation Xrotation Yrotation
                        End Site
                        {
                          OFFSET -2.194 0 0
                        }
                      }
                    }
                  }
                  JOINT RightInHandIndex
                  {
                    OFFSET -3.22368 0.508421 1.97842
                    CHANNELS 3 Zrotation Xrotation Yrotation
                    JOINT RightHandIndex1
                    {
                      OFFSET -5.21684 -0.091368 0.999158
                      CHANNELS 3 Zrotation Xrotation Yrotation
                      JOINT RightHandIndex2
                      {
                        OFFSET -3.61937 0 0
                        CHANNELS 3 Zrotation Xrotation Yrotation
                        JOINT RightHandIndex3
                        {
                          OFFSET -2.0521 0 0
                          CHANNELS 3 Zrotation Xrotation Yrotation
                          End Site
                          {
                            OFFSET -1.805 0 0
                          }
                        }
                      }
                    }
                  }
                  JOINT RightInHandMiddle
                  {
                    OFFSET -3.38211 0.517263 0.756737
                    CHANNELS 3 Zrotation Xrotation Yrotation
                    JOINT RightHandMiddle1
                    {
                      OFFSET -5.17411 -0.084 0.313895
                      CHANNELS 3 Zrotation Xrotation Yrotation
                      JOINT RightHandMiddle2
                      {
                        OFFSET -3.94947 0 0
                        CHANNELS 3 Zrotation Xrotation Yrotation
                        JOINT RightHandMiddle3
                        {
                          OFFSET -2.47579 0 0
                          CHANNELS 3 Zrotation Xrotation Yrotation
                          End Site
                          {
                            OFFSET -1.975 0 0
                          }
                        }
                      }
                    }
                  }
                  JOINT RightInHandRing
                  {
                    OFFSET -3.36516 0.537895 -0.128947
                    CHANNELS 3 Zrotation Xrotation Yrotation
                    JOINT RightHandRing1
                    {
                      OFFSET -4.63474 -0.022105 -0.478947
                      CHANNELS 3 Zrotation Xrotation Yrotation
                      JOINT RightHandRing2
                      {
                        OFFSET -3.44238 0 0
                        CHANNELS 3 Zrotation Xrotation Yrotation
                        JOINT RightHandRing3
                        {
                          OFFSET -2.3881 0 0
                          CHANNELS 3 Zrotation Xrotation Yrotation
                          End Site
                          {
                            OFFSET -1.857 0 0
                          }
                        }
                      }
                    }
                  }
                  JOINT RightInHandPinky
                  {
                    OFFSET -3.16105 0.469368 -1.20179
                    CHANNELS 3 Zrotation Xrotation Yrotation
                    JOINT RightHandPinky1
                    {
                      OFFSET -4.14105 -0.022105 -1.09053
                      CHANNELS 3 Zrotation Xrotation Yrotation
                      JOINT RightHandPinky2
                      {
                        OFFSET -2.75653 0 0
                        CHANNELS 3 Zrotation Xrotation Yrotation
                        JOINT RightHandPinky3
                        {
                          OFFSET -1.74189 0 0
                          CHANNELS 3 Zrotation Xrotation Yrotation
                          End Site
                          {
                            OFFSET -1.645 0 0
                          }
                        }
                      }
                    }
                  }
                }
              }
            }
          }
          JOINT LeftShoulder
          {
            OFFSET 3.18966 6.92856 0.062398
            CHANNELS 3 Zrotation Xrotation Yrotation
            JOINT LeftArm
            {
              OFFSET 12.7601 -0.0509086 0.00275124
              CHANNELS 3 Zrotation Xrotation Yrotation
              JOINT LeftForeArm
              {
                OFFSET 26.4828 -0.0571091 -0.0285564
                CHANNELS 3 Zrotation Xrotation Yrotation
                JOINT LeftHand
                {
                  OFFSET 25.9994 -0.0171136 -0.0547064
                  CHANNELS 3 Zrotation Xrotation Yrotation
                  JOINT LeftHandThumb1
                  {
                    OFFSET 2.48905 0.190105 3.12053
                    CHANNELS 3 Zrotation Xrotation Yrotation
                    JOINT LeftHandThumb2
                    {
                      OFFSET 3.68274 0 0
                      CHANNELS 3 Zrotation Xrotation Yrotation
                      JOINT LeftHandThumb3
                      {
                        OFFSET 2.55832 0 0
                        CHANNELS 3 Zrotation Xrotation Yrotation
                        End Site
                        {
                          OFFSET 2.194 0 0
                        }
                      }
                    }
                  }
                  JOINT LeftInHandIndex
                  {
                    OFFSET 3.22368 0.508421 1.97842
                    CHANNELS 3 Zrotation Xrotation Yrotation
                    JOINT LeftHandIndex1
                    {
                      OFFSET 5.21684 -0.091368 0.999158
                      CHANNELS 3 Zrotation Xrotation Yrotation
                      JOINT LeftHandIndex2
                      {
                        OFFSET 3.61937 0 0
                        CHANNELS 3 Zrotation Xrotation Yrotation
                        JOINT LeftHandIndex3
                        {
                          OFFSET 2.0521 0 0
                          CHANNELS 3 Zrotation Xrotation Yrotation
                          End Site
                          {
                            OFFSET 1.805 0 0
                          }
                        }
                      }
                    }
                  }
                  JOINT LeftInHandMiddle
                  {
                    OFFSET 3.38211 0.517263 0.756737
                    CHANNELS 3 Zrotation Xrotation Yrotation
                    JOINT LeftHandMiddle1
                    {
                      OFFSET 5.17411 -0.084 0.313895
                      CHANNELS 3 Zrotation Xrotation Yrotation
                      JOINT LeftHandMiddle2
                      {
                        OFFSET 3.94947 0 0
                        CHANNELS 3 Zrotation Xrotation Yrotation
                        JOINT LeftHandMiddle3
                        {
                          OFFSET 2.47579 0 0
                          CHANNELS 3 Zrotation Xrotation Yrotation
                          End Site
                          {
                            OFFSET 1.975 0 0
                          }
                        }
                      }
                    }
                  }
                  JOINT LeftInHandRing
                  {
                    OFFSET 3.36516 0.537895 -0.128947
                    CHANNELS 3 Zrotation Xrotation Yrotation
                    JOINT LeftHandRing1
                    {
                      OFFSET 4.63474 -0.022105 -0.478947
                      CHANNELS 3 Zrotation Xrotation Yrotation
                      JOINT LeftHandRing2
                      {
                        OFFSET 3.44238 0 0
                        CHANNELS 3 Zrotation Xrotation Yrotation
                        JOINT LeftHandRing3
                        {
                          OFFSET 2.3881 0 0
                          CHANNELS 3 Zrotation Xrotation Yrotation
                          End Site
                          {
                            OFFSET 1.857 0 0
                          }
                        }
                      }
                    }
                  }
                  JOINT LeftInHandPinky
                  {
                    OFFSET 3.16105 0.469368 -1.20179
                    CHANNELS 3 Zrotation Xrotation Yrotation
                    JOINT LeftHandPinky1
                    {
                      OFFSET 4.14105 -0.022105 -1.09053
                      CHANNELS 3 Zrotation Xrotation Yrotation
                      JOINT LeftHandPinky2
                      {
                        OFFSET 2.75653 0 0
                        CHANNELS 3 Zrotation Xrotation Yrotation
                        JOINT LeftHandPinky3
                        {
                          OFFSET 1.74189 0 0
                          CHANNELS 3 Zrotation Xrotation Yrotation
                          End Site
                          {
                            OFFSET 1.645 0 0
                          }
                        }
                      }
                    }
                  }
                }
              }
            }
          }
        }
      }
    }
  }
}
MOTION
Frames: 3
Frame Time: 0.00833333
1.052168109495257795e+03 8.777928657168911286e+01 2.864158418979846132e+01 2.081260921905128569e+01 -2.511590072237652649e+01 -1.522279915645166852e+02 1.914414851337596701e+01 -5.988259120879308739e+01 3.306340194266775256e+01 -3.050513963395831141e+00 2.774163633984248278e+01 1.974739851897932041e+01 1.003247977110412847e+01 2.734898729265613504e-01 -5.004990361055113191e+00 3.892266204323223633e+01 -4.174668969875415314e+01 5.218768295528735024e+01 -3.372685788588556943e-01 3.447597688042066721e+01 1.517483334787775995e+01 -1.191744397195328808e+01 -5.036251963684385657e+00 8.089838302030438744e-01 -1.107559389372245739e+01 7.160929028906916294e+00 6.609409867381402570e+00 -2.673085441490343328e+00 2.351930852495409230e+00 1.420340962193691103e+00 -4.343619629508395974e+00 3.298842964158342994e+00 2.037204397153595803e+00 -1.731315886093416356e-01 2.411129031763913078e-02 5.242067596448105604e-01 -1.520307170978769107e-01 1.010224012142844907e-01 1.211835042912845051e+00 -3.158073158652844548e+00 1.800337175229265174e+00 9.739573761400379226e+00 2.303218835639394335e+00 -4.627496944962008918e+00 1.108465086205504546e+00 6.647868734062052454e+01 7.196629529661460190e+00 3.468141383870120364e+01 2.754859212031574955e+01 -2.936858425951409401e+01 4.696690768998117704e+01 -9.092226321596243110e+00 -1.359741793746342253e+01 4.822756506697539969e+00 2.818399999999999039e+01 1.072940000000000005e+01 1.915920000000001266e+01 9.352850652395600565e-16 9.492267973018397468e-16 -1.000000000000000000e+01 7.357416901221373732e-15 4.366420936659509618e-16 -1.000000000000000000e+01 1.822576601426500672e-15 -2.322681450070954333e-15 -1.801569136978746710e-15 1.998180000000001044e+01 8.718970000000003662e-01 2.396399999999999864e+00 2.400000000000000000e+01 2.164841580649680994e-15 -3.530265020884341259e-15 2.000000000000000000e+01 6.627108805274772815e-16 3.383319072787917359e-16 1.822576601426500672e-15 -2.322681450070954333e-15 -1.801569136978746710e-15 2.000000000000000000e+01 -2.355602085645667935e-16 2.373176225877799380e-15 2.400000000000000000e+01 -2.085791195761006324e-15 -6.204766085538781704e-15 2.000000000000000000e+01 -8.724464305931556166e-17 5.199333371659148236e-15 1.822576601426500672e-15 -2.322681450070954333e-15 -1.801569136978746710e-15 1.997479999999999123e+01 -1.025649999999999507e+00 -2.819379999999998887e+00 2.400000000000000000e+01 -2.387248698009717077e-15 -3.891345076724015783e-15 2.000000000000000000e+01 2.543467327472987016e-16 -2.899584687674541015e-16 1.822576601426500672e-15 -2.322681450070954333e-15 -1.801569136978746710e-15 1.978150000000001185e+01 -3.009479999999997712e+00 -8.305150000000002919e+00 2.400000000000000000e+01 -2.358442387815386673e-15 1.813299070554086306e-15 2.000000000000000000e+01 6.286019470111520113e-16 -6.757789721964433020e-15 2.427550683964101452e-01 -1.292197642921836476e+01 -2.137684904480419235e+01 -1.442165102091913909e+01 2.877992817146569848e+01 -9.289492904615629243e+01 4.300110858564531213e+01 -3.797808426594954057e+01 -1.414057770499244526e+01 -3.607288459527322999e+01 -3.463713460019938850e+00 -8.652776726210376523e+00 -2.818399999999999039e+01 1.072940000000000005e+01 -1.915920000000001266e+01 1.537986413475173113e-15 -3.864497662132055956e-16 1.000000000000000000e+01 1.369897988449840005e-15 2.291846128917871636e-15 1.000000000000000000e+01 -6.528478591916230102e-16 -8.370373230336536327e-16 -4.750173229198929742e-16 -1.998180000000001044e+01 8.718970000000003662e-01 -2.396399999999999864e+00 -2.400000000000000000e+01 -1.836120427251868010e-15 4.529338488456923215e-15 -2.000000000000000000e+01 -9.346475812348049154e-16 -8.901464074867833598e-16 -6.528478591916230102e-16 -8.370373230336536327e-16 -4.750173229198929742e-16 -2.000000000000000000e+01 1.103633543041403820e-15 4.166267307952465219e-15 -2.400000000000000000e+01 1.781685544192105439e-15 3.898617483219264729e-15 -2.000000000000000000e+01 9.777491269760809106e-16 3.679501166661467798e-15 -6.528478591916230102e-16 -8.370373230336536327e-16 -4.750173229198929742e-16 -1.997479999999999123e+01 -1.025649999999999507e+00 2.819379999999998887e+00 -2.400000000000000000e+01 -2.309943535978286895e-15 2.610122500244210277e-15 -2.000000000000000000e+01 3.257220865471886679e-16 4.864996201447153363e-15 -6.528478591916230102e-16 -8.370373230336536327e-16 -4.750173229198929742e-16 -1.978150000000001185e+01 -3.009479999999997712e+00 8.305150000000002919e+00 -2.400000000000000000e+01 -2.515739020726087211e-15 1.650716625948578759e-15 -2.000000000000000000e+01 1.220651753115071204e-15 -2.001432942710939558e-15
1.052166299775421066e+03 8.778041581096081813e+01 2.863693719169227236e+01 2.081626414131370950e+01 -2.510538261407366889e+01 -1.521874797451120003e+02 1.909006665591059360e+01 -5.987343117734058495e+01 3.301390412481623571e+01 -3.042645803635490420e+00 2.775286323063850702e+01 1.973473171764415213e+01 1.002894473387114260e+01 2.578195874586777236e-01 -5.015735870827143117e+00 3.889499632580691468e+01 -4.175853404157856374e+01 5.215769712453792550e+01 -3.258230416745394042e-01 3.446870126150846403e+01 1.515884444809667819e+01 -1.191587863481173137e+01 -5.029534250195901279e+00 8.008225045960134514e-01 -1.107886517709417973e+01 7.162489584965527456e+00 6.645815671312468531e+00 -2.673772426373387745e+00 2.354443457661766104e+00 1.429661948080197531e+00 -4.344213414874981360e+00 3.299769067851357818e+00 2.050960511200864644e+00 -1.715064649671975139e-01 2.443874755336707116e-02 5.207868007267733024e-01 -1.480782289806943375e-01 1.024270114605789483e-01 1.192495964358952332e+00 -3.126516136949308855e+00 1.812070743338693113e+00 9.684128574282695467e+00 2.292815807206384449e+00 -4.644558087794857570e+00 1.118150493179543625e+00 6.642633139268895093e+01 7.186620473092503403e+00 3.475247927342974918e+01 2.752223576301410901e+01 -2.936866747325447946e+01 4.709485443049072018e+01 -9.082996856945820596e+00 -1.358579671632400832e+01 4.809855450843614655e+00 2.818399999999999039e+01 1.072940000000000005e+01 1.915920000000001266e+01 9.424857001063207423e-16 9.431118050593066869e-16 -1.000000000000000000e+01 7.385737143777311849e-15 4.377529039063981169e-16 -1.000000000000000000e+01 1.814020572053033912e-15 -2.344516929339879462e-15 -1.811425120996998328e-15 1.998180000000001044e+01 8.718970000000003662e-01 2.396399999999999864e+00 2.400000000000000000e+01 2.188724187342835470e-15 -3.507638846320774577e-15 2.000000000000000000e+01 6.724720720284738567e-16 3.197026742264007527e-16 1.814020572053033912e-15 -2.344516929339879462e-15 -1.811425120996998328e-15 2.000000000000000000e+01 -2.441238220424348525e-16 2.371364239337455415e-15 2.400000000000000000e+01 -2.074807123552521895e-15 -6.192433471586985101e-15 2.000000000000000000e+01 -8.438297882774663874e-17 5.200928780109760637e-15 1.814020572053033912e-15 -2.344516929339879462e-15 -1.811425120996998328e-15 1.997479999999999123e+01 -1.025649999999999507e+00 -2.819379999999998887e+00 2.400000000000000000e+01 -2.390116807821176885e-15 -3.875104203539863656e-15 2.000000000000000000e+01 2.597125840048815126e-16 -3.020695905014982742e-16 1.814020572053033912e-15 -2.344516929339879462e-15 -1.811425120996998328e-15 1.978150000000001185e+01 -3.009479999999997712e+00 -8.305150000000002919e+00 2.400000000000000000e+01 -2.370336942366870191e-15 1.814125925591377566e-15 2.000000000000000000e+01 6.307735712977051211e-16 -6.804909265352717564e-15 2.534688919691889808e-01 -1.292057566265249946e+01 -2.135757523689253645e+01 -1.451140110815192230e+01 2.874892318159229987e+01 -9.280019232882199276e+01 4.280274261222834298e+01 -3.800799766032235993e+01 -1.452617050114001529e+01 -3.610393763592405492e+01 -3.528334741204428582e+00 -8.650146985987760218e+00 -2.818399999999999039e+01 1.072940000000000005e+01 -1.915920000000001266e+01 1.540353481955908076e-15 -3.804112685729419162e-16 1.000000000000000000e+01 1.361516978637181685e-15 2.301453889684685635e-15 1.000000000000000000e+01 -6.690228173839355441e-16 -8.370508216006842832e-16 -4.737439173268302080e-16 -1.998180000000001044e+01 8.718970000000003662e-01 -2.396399999999999864e+00 -2.400000000000000000e+01 -1.844023343034667957e-15 4.557085951805688413e-15 -2.000000000000000000e+01 -9.447711958296276083e-16 -8.996955292447004149e-16 -6.690228173839355441e-16 -8.370508216006842832e-16 -4.737439173268302080e-16 -2.000000000000000000e+01 1.102925738608702129e-15 4.185180011759083197e-15 -2.400000000000000000e+01 1.783039731561010510e-15 3.912699606340407925e-15 -2.000000000000000000e+01 9.846020135925239350e-16 3.710428968102944942e-15 -6.690228173839355441e-16 -8.370508216006842832e-16 -4.737439173268302080e-16 -1.997479999999999123e+01 -1.025649999999999507e+00 2.819379999999998887e+00 -2.400000000000000000e+01 -2.320719237211314882e-15 2.625139086521670938e-15 -2.000000000000000000e+01 3.353729365140984317e-16 4.887211072507601655e-15 -6.690228173839355441e-16 -8.370508216006842832e-16 -4.737439173268302080e-16 -1.978150000000001185e+01 -3.009479999999997712e+00 8.305150000000002919e+00 -2.400000000000000000e+01 -2.529495405264432311e-15 1.669346166246329330e-15 -2.000000000000000000e+01 1.215139588817196488e-15 -1.995709897027939974e-15
1.052164464820704552e+03 8.778156081519661313e+01 2.863222695819227681e+01 2.081997077061057411e+01 -2.509471809826136379e+01 -1.521463955508905315e+02 1.903522039644452590e+01 -5.986414770262571494e+01 3.296370591861695232e+01 -3.034665565031076984e+00 2.776424704791285691e+01 1.972188581291225162e+01 1.002536027266499730e+01 2.419313704903958140e-01 -5.026631447881686476e+00 3.886694188502694658e+01 -4.177054922799882775e+01 5.212728957031706756e+01 -3.142168669279253868e-01 3.446132238524253921e+01 1.514263098812102726e+01 -1.191429013766038025e+01 -5.022720641223117788e+00 7.925470426855322215e-01 -1.108218220005715615e+01 7.164075297799006314e+00 6.682734676692233755e+00 -2.674468954021442801e+00 2.356991945588985171e+00 1.439114132580545657e+00 -4.344815434306593893e+00 3.300710005421657378e+00 2.064910396521911995e+00 -1.698586633205861895e-01 2.477067915920044827e-02 5.173184975019908816e-01 -1.440701464884717453e-01 1.038512466991131089e-01 1.172881682679575377e+00 -3.094518241624377719e+00 1.823965693885174488e+00 9.627900811534841452e+00 2.282269132107874299e+00 -4.661856487251812453e+00 1.127973009953125771e+00 6.637324073113636302e+01 7.176474310989497063e+00 3.482456428308543650e+01 2.749550993348808348e+01 -2.936876171535885760e+01 4.722466803018018311e+01 -9.073634191839875740e+00 -1.357401704333910608e+01 4.796773264999592001e+00 2.818399999999999039e+01 1.072940000000000005e+01 1.915920000000001266e+01 9.497903914559886671e-16 9.369084732028371539e-16 -1.000000000000000000e+01 7.414457684501302457e-15 4.388808421003105967e-16 -1.000000000000000000e+01 1.805345674538407142e-15 -2.366656498819945262e-15 -1.821417829588918980e-15 1.998180000000001044e+01 8.718970000000003662e-01 2.396399999999999864e+00 2.400000000000000000e+01 2.212936693350657336e-15 -3.484704605920664538e-15 2.000000000000000000e+01 6.823655362593258127e-16 3.008046564605574543e-16 1.805345674538407142e-15 -2.366656498819945262e-15 -1.821417829588918980e-15 2.000000000000000000e+01 -2.528016009867918194e-16 2.369528208023511759e-15 2.400000000000000000e+01 -2.063669986257304524e-15 -6.179924246649759475e-15 2.000000000000000000e+01 -8.148672467729619944e-17 5.202537569033284853e-15 1.805345674538407142e-15 -2.366656498819945262e-15 -1.821417829588918980e-15 1.997479999999999123e+01 -1.025649999999999507e+00 -2.819379999999998887e+00 2.400000000000000000e+01 -2.393025354178898946e-15 -3.858638415915563219e-15 2.000000000000000000e+01 2.651531049879517397e-16 -3.143521226901611163e-16 1.805345674538407142e-15 -2.366656498819945262e-15 -1.821417829588918980e-15 1.978150000000001185e+01 -3.009479999999997712e+00 -8.305150000000002919e+00 2.400000000000000000e+01 -2.382393357072999287e-15 1.814974814305889481e-15 2.000000000000000000e+01 6.329741885069447999e-16 -6.852683963724289674e-15 2.643272871656687784e-01 -1.291915320159464287e+01 -2.133803527483284412e+01 -1.460240892451577466e+01 2.871748888434073876e+01 -9.270412348496172683e+01 4.260162011426996287e+01 -3.803834625155229787e+01 -1.491710730537361940e+01 -3.613541448335908512e+01 -3.593836360178659817e+00 -8.647458367220895781e+00 -2.818399999999999039e+01 1.072940000000000005e+01 -1.915920000000001266e+01 1.542751784755332568e-15 -3.742920590426664472e-16 1.000000000000000000e+01 1.353016770567224748e-15 2.311197910591882483e-15 1.000000000000000000e+01 -6.854221911566503448e-16 -8.370628359518033991e-16 -4.724504886505145091e-16 -1.998180000000001044e+01 8.718970000000003662e-01 -2.396399999999999864e+00 -2.400000000000000000e+01 -1.852038698397209623e-15 4.585218836938842808e-15 -2.000000000000000000e+01 -9.550378224041885354e-16 -9.093759292496372233e-16 -6.854221911566503448e-16 -8.370628359518033991e-16 -4.724504886505145091e-16 -2.000000000000000000e+01 1.102204287777281512e-15 4.204355782994732457e-15 -2.400000000000000000e+01 1.784414274289472744e-15 3.926974324328672270e-15 -2.000000000000000000e+01 9.915519135100197959e-16 3.741784855563590379e-15 -6.854221911566503448e-16 -8.370628359518033991e-16 -4.724504886505145091e-16 -1.997479999999999123e+01 -1.025649999999999507e+00 2.819379999999998887e+00 -2.400000000000000000e+01 -2.331643032586402362e-15 2.640361309608651957e-15 -2.000000000000000000e+01 3.451607373441326589e-16 4.909729668706191861e-15 -6.854221911566503448e-16 -8.370628359518033991e-16 -4.724504886505145091e-16 -1.978150000000001185e+01 -3.009479999999997712e+00 8.305150000000002919e+00 -2.400000000000000000e+01 -2.543443299094182938e-15 1.688232144739902926e-15 -2.000000000000000000e+01 1.209548897333721436e-15 -1.989910730757216432e-15
